# xmcd
#
# Track frame offsets: 
#        182
#        16182
#        30245
#        45297
#        64660
#        76095
#        92967
#        106582
#        126825
#        141582
#
# Disc length: 2154 seconds
#
# Revision: 3
# Processed by: cddbd v1.5.2PL0 Copyright (c) Steve Scherf et al.
# Submitted via: ExactAudioCopy v1.1
#
DISCID=7008680a
DTITLE=Martin Delray - What Kind Of Man
DYEAR=1992
DGENRE=Country
TTITLE0=What Kind Of Man
TTITLE1=Sometimes She Forgets
TTITLE2=Twang
TTITLE3=What Was I Thinkin'
TTITLE4=Trying To Keep A Few Things Warm
TTITLE5=Solid Rock
TTITLE6=The Wound
TTITLE7=Nobody Wants You
TTITLE8=Settin' Up
TTITLE9=Riding Around The Moon
EXTD=YEAR: 1992
EXTT0=
EXTT1=
EXTT2=
EXTT3=
EXTT4=
EXTT5=
EXTT6=
EXTT7=
EXTT8=
EXTT9=
PLAYORDER=
